HIERARCHY
ROOT Hips
{
	OFFSET 0.000000 0.000000 0.000000
	CHANNELS 6 Xposition Yposition Zposition Zrotation Yrotation Xrotation 
	JOINT LHipJoint
	{
		OFFSET 0.000000 0.000000 0.000000
		CHANNELS 3 Zrotation Yrotation Xrotation
		JOINT LeftUpLeg
		{
			OFFSET 1.363060 -1.794630 0.839290
			CHANNELS 3 Zrotation Yrotation Xrotation
			JOINT LeftLeg
			{
				OFFSET 2.448110 -6.726130 0.000000
				CHANNELS 3 Zrotation Yrotation Xrotation
				JOINT LeftFoot
				{
					OFFSET 2.562200 -7.039590 0.000000
					CHANNELS 3 Zrotation Yrotation Xrotation
					JOINT LeftToeBase
					{
						OFFSET 0.157640 -0.433110 2.322550
						CHANNELS 3 Zrotation Yrotation Xrotation
						End Site
						{
							OFFSET 0.000000 0.000000 0.000000
						}
					}
				}
			}
		}
	}
	JOINT RHipJoint
	{
		OFFSET 0.000000 0.000000 0.000000
		CHANNELS 3 Zrotation Yrotation Xrotation
		JOINT RightUpLeg
		{
			OFFSET -1.305520 -1.794630 0.839290
			CHANNELS 3 Zrotation Yrotation Xrotation
			JOINT RightLeg
			{
				OFFSET -2.542530 -6.985550 0.000000
				CHANNELS 3 Zrotation Yrotation Xrotation
				JOINT RightFoot
				{
					OFFSET -2.568260 -7.056230 0.000000
					CHANNELS 3 Zrotation Yrotation Xrotation
					JOINT RightToeBase
					{
						OFFSET -0.164730 -0.452590 2.363150
						CHANNELS 3 Zrotation Yrotation Xrotation
						End Site
						{
							OFFSET 0.000000 0.000000 0.000000
						}
					}
				}
			}
		}
	}
	JOINT LowerBack
	{
		OFFSET 0.000000 0.000000 0.000000
		CHANNELS 3 Zrotation Yrotation Xrotation
		JOINT Spine
		{
			OFFSET 0.028270 2.035590 -0.193380
			CHANNELS 3 Zrotation Yrotation Xrotation
			JOINT Spine1
			{
				OFFSET 0.056720 2.048850 -0.042750
				CHANNELS 3 Zrotation Yrotation Xrotation
				JOINT Neck
				{
					OFFSET 0.000000 0.000000 0.000000
					CHANNELS 3 Zrotation Yrotation Xrotation
					JOINT Neck1
					{
						OFFSET -0.054170 1.746240 0.172020
						CHANNELS 3 Zrotation Yrotation Xrotation
						JOINT Head
						{
							OFFSET 0.104070 1.761360 -0.123970
							CHANNELS 3 Zrotation Yrotation Xrotation
							End Site
							{
								OFFSET 0.000000 0.000000 0.000000
							}
						}
					}
				}
				JOINT LeftShoulder
				{
					OFFSET 0.000000 0.000000 0.000000
					CHANNELS 3 Zrotation Yrotation Xrotation
					JOINT LeftArm
					{
						OFFSET 3.362410 1.200890 -0.311210
						CHANNELS 3 Zrotation Yrotation Xrotation
						JOINT LeftForeArm
						{
							OFFSET 4.983000 -0.000000 -0.000000
							CHANNELS 3 Zrotation Yrotation Xrotation
							JOINT LeftHand
							{
								OFFSET 3.483560 -0.000000 -0.000000
								CHANNELS 3 Zrotation Yrotation Xrotation
								JOINT LeftFingerBase
								{
									OFFSET 0.000000 0.000000 0.000000
									CHANNELS 3 Zrotation Yrotation Xrotation
									JOINT LeftHandIndex1
									{
										OFFSET 0.715260 -0.000000 -0.000000
										CHANNELS 3 Zrotation Yrotation Xrotation
										End Site
										{
											OFFSET 0.000000 0.000000 0.000000
										}
									}
								}
								JOINT LThumb
								{
									OFFSET 0.000000 0.000000 0.000000
									CHANNELS 3 Zrotation Yrotation Xrotation
									End Site
									{
										OFFSET 0.000000 0.000000 0.000000
									}
								}
							}
						}
					}
				}
				JOINT RightShoulder
				{
					OFFSET 0.000000 0.000000 0.000000
					CHANNELS 3 Zrotation Yrotation Xrotation
					JOINT RightArm
					{
						OFFSET -3.136600 1.374050 -0.404650
						CHANNELS 3 Zrotation Yrotation Xrotation
						JOINT RightForeArm
						{
							OFFSET -5.241900 -0.000000 -0.000000
							CHANNELS 3 Zrotation Yrotation Xrotation
							JOINT RightHand
							{
								OFFSET -3.444170 -0.000000 -0.000000
								CHANNELS 3 Zrotation Yrotation Xrotation
								JOINT RightFingerBase
								{
									OFFSET 0.000000 0.000000 0.000000
									CHANNELS 3 Zrotation Yrotation Xrotation
									JOINT RightHandIndex1
									{
										OFFSET -0.622530 -0.000000 -0.000000
										CHANNELS 3 Zrotation Yrotation Xrotation
										End Site
										{
											OFFSET 0.000000 0.000000 0.000000
										}
									}
								}
								JOINT RThumb
								{
									OFFSET 0.000000 0.000000 0.000000
									CHANNELS 3 Zrotation Yrotation Xrotation
									End Site
									{
										OFFSET 0.000000 0.000000 0.000000
									}
								}
							}
						}
					}
				}
			}
		}
	}
}
MOTION
Frames: 7
Frame Time: 0.008333
9.988230 17.969870 -0.629518 2.109954 7.779211 -5.107993 -1.549100 5.037461 3.778380 -18.325454 -7.963103 -1.529457 -0.914938 4.988704 17.495152 -1.790399 8.544894 -2.075502 0.222200 -3.034200 -8.373900 -0.439480 -5.015081 2.171247 16.351460 -2.280597 -0.353608 -0.421123 -5.629457 20.951887 1.985297 -16.021656 -19.087918 -0.036500 -1.234000 3.392800 10.065207 4.940048 -0.700184 2.532134 6.713287 0.559463 -3.161579 3.449609 3.594270 4.658594 12.745335 -7.677068 5.698590 15.866014 21.710236 1.615700 8.931200 7.382200 -5.025686 -0.869121 -0.368321 -42.438190 -40.690883 -21.986716 41.239370 -48.256455 -19.036779 -0.728145 0.234544 -78.839715 25.776305 28.421268 12.564100 -7.125000 0.000000 0.000000 -5.434600 60.018200 -1.995100 7.347526 1.461428 1.844573 88.301327 40.282472 111.672621 -136.677527 47.131654 -97.222779 0.568196 -0.788720 -30.934352 -27.272932 23.754464 -12.259000 7.125000 0.000000 0.000000 1.307200 -2.469900 1.250000 
9.992286 17.973520 -0.627490 1.761944 7.890777 -5.192440 -1.537288 5.051583 3.798609 -17.960001 -7.973999 -1.540942 -0.915062 4.999889 17.498730 -1.776796 8.464909 -1.893729 0.241800 -3.164400 -8.736900 -0.440424 -5.020510 2.166724 16.706712 -2.279081 -0.159420 -0.393611 -5.561026 20.793964 1.951492 -15.999960 -19.290079 -0.059700 -1.576800 4.337500 10.392436 5.029320 -0.678841 2.719590 6.844583 0.361722 -3.162106 3.515139 3.386918 4.370702 13.056258 -6.571439 6.350270 16.192252 20.550960 1.674000 9.095000 6.851200 -4.997973 -0.951320 -0.415365 -41.480426 -41.246215 -22.678320 41.089116 -48.188100 -18.934192 -0.722573 0.217518 -79.375525 25.290885 28.360230 12.285800 -7.125000 0.000000 0.000000 -5.955100 59.850700 -2.163200 7.384909 1.438293 1.863024 88.429129 40.483589 112.320399 -136.422903 47.239562 -97.022175 0.577664 -0.777857 -30.680350 -28.577112 23.909525 -13.011700 7.125000 0.000000 0.000000 0.530600 -2.005200 0.511800 
9.996139 17.975853 -0.625361 1.336689 8.030930 -5.335355 -1.517675 5.077028 3.823391 -17.527851 -8.127563 -1.470978 -0.912724 5.028116 17.545768 -1.758368 8.380605 -1.940996 0.200800 -2.885200 -7.959300 -0.442729 -5.034070 2.157685 17.173494 -2.437391 0.146869 -0.361999 -5.461434 20.574959 1.916523 -15.978160 -19.476927 -0.061700 -1.603300 4.410600 10.925073 5.090910 -0.574813 2.813671 6.947815 0.202843 -3.369084 3.578033 3.242499 4.676830 13.110837 -5.353109 6.165195 16.281855 19.120132 1.409400 9.081400 6.346300 -4.983077 -1.028952 -0.496894 -40.191939 -42.027997 -23.696595 40.843429 -48.084379 -18.768374 -0.715164 0.203989 -79.685003 24.784847 28.467909 12.064600 -7.125000 0.000000 0.000000 -6.579100 59.855000 -2.391600 7.413198 1.405209 1.893018 88.591896 40.934407 112.861411 -136.439971 47.216607 -97.045385 0.586592 -0.768365 -30.440004 -29.486595 23.882768 -13.484400 7.125000 0.000000 0.000000 -0.031900 -1.818800 -0.030900 
9.999993 17.978692 -0.623941 1.310022 8.210250 -5.345285 -1.513598 5.076399 3.814912 -17.529076 -8.251959 -1.471490 -0.897445 5.073622 17.675116 -1.727408 8.254483 -2.044030 0.200100 -2.880200 -7.945300 -0.441921 -5.047805 2.163596 17.201964 -2.592075 0.322943 -0.320363 -5.350828 20.277663 1.938809 -16.088279 -19.500086 -0.041000 -1.307000 3.593900 10.890136 5.158511 -0.658766 2.905194 7.022301 0.243367 -3.198354 3.619036 3.340222 5.054060 13.078835 -4.874933 5.628639 16.301975 18.061881 1.138100 9.018100 6.084100 -4.982866 -1.079217 -0.594392 -38.894894 -43.119152 -25.090688 40.537712 -47.968500 -18.574863 -0.709762 0.202861 -79.650691 24.598532 28.897929 12.133400 -7.125000 0.000000 0.000000 -7.009500 60.262000 -2.617000 7.429220 1.382060 1.915665 88.472847 41.326254 113.050752 -136.410090 47.220448 -97.029400 0.587671 -0.763248 -30.020352 -30.124472 24.073093 -13.922100 7.125000 0.000000 0.000000 -0.391300 -1.458500 -0.381300 
9.999080 17.983863 -0.625868 1.310317 8.456616 -5.232099 -1.518277 5.059394 3.793704 -17.509601 -8.287152 -1.657388 -0.889089 5.106374 17.757162 -1.679874 8.040000 -1.912992 0.246100 -3.192100 -8.813900 -0.433272 -5.046953 2.164898 17.212584 -2.705976 0.328103 -0.280454 -5.257346 20.008379 2.006454 -16.344416 -19.447717 -0.031600 -1.148200 3.156700 10.818011 5.199224 -0.803326 2.921042 7.055691 0.232929 -3.112089 3.630030 3.361261 5.173344 13.115430 -5.290862 5.827033 16.279516 17.942431 1.193600 9.021300 6.128100 -4.983136 -1.085617 -0.677286 -37.466763 -43.993290 -26.408120 40.220876 -47.867085 -18.382543 -0.700524 0.207296 -79.813263 24.623301 29.037657 12.200600 -7.125000 0.000000 0.000000 -7.068500 60.421900 -2.666100 7.437661 1.385581 1.938760 88.718815 41.424460 113.205519 -135.945675 47.445751 -96.630586 0.586477 -0.774693 -29.576091 -30.774810 24.557698 -14.527100 7.125000 0.000000 0.000000 -0.696900 -0.751400 -0.687700 
9.996748 17.988224 -0.627794 1.283578 8.712786 -5.125763 -1.522938 5.047215 3.775318 -17.435604 -8.469936 -1.777085 -0.897077 5.113687 17.764324 -1.605978 7.726555 -1.982738 0.158000 -2.561200 -7.059300 -0.424092 -5.044006 2.162300 17.262714 -2.805115 0.308153 -0.255836 -5.198377 19.838550 2.088642 -16.641662 -19.351160 -0.038100 -1.259900 3.464300 10.885104 5.246344 -0.913988 2.875308 7.105991 0.158138 -3.211364 3.649445 3.294623 4.933370 13.156127 -5.914186 6.607810 16.185213 18.217078 1.460800 9.039600 6.231500 -4.978391 -1.083482 -0.743262 -36.017067 -44.739141 -27.464420 39.966346 -47.809953 -18.239056 -0.692118 0.210482 -80.089366 24.703064 29.218730 12.313600 -7.125000 0.000000 0.000000 -7.086600 60.637000 -2.709300 7.443300 1.402811 1.958175 89.168370 41.292782 113.368992 -135.246783 47.780111 -96.024083 0.584276 -0.793549 -29.025298 -31.497842 25.111661 -15.225400 7.125000 0.000000 0.000000 -1.023800 0.066200 -1.025100 
10.001311 17.994004 -0.623434 1.177678 8.814948 -5.118945 -1.519747 5.051309 3.773850 -17.293947 -8.730171 -1.733715 -0.909323 5.110825 17.748079 -1.526561 7.404257 -2.238204 0.077000 -1.789800 -4.925000 -0.421755 -5.048687 2.158386 17.359036 -2.893070 0.357087 -0.243867 -5.161370 19.740994 2.133733 -16.774264 -19.219280 -0.044800 -1.366300 3.757200 11.110281 5.394742 -1.056169 2.912861 7.280875 0.140159 -3.260394 3.747474 3.393994 5.029722 13.139412 -5.607419 6.385189 16.199654 17.551153 1.333900 9.001400 6.046800 -4.976459 -1.123764 -0.817202 -34.739117 -45.743748 -28.373260 39.533472 -47.638931 -17.955168 -0.687777 0.214642 -80.047475 24.597247 29.547216 12.380700 -7.125000 0.000000 0.000000 -7.391900 60.953800 -2.882400 7.448709 1.396081 1.967151 89.162191 41.368175 113.393095 -134.810255 47.971800 -95.655244 0.579774 -0.800286 -28.206910 -32.294990 25.566725 -15.928800 7.125000 0.000000 0.000000 -1.412400 0.789000 -1.432200 
